<svg width="512" height="512" viewBox="0 0 512 512" fill="none" xmlns="http://www.w3.org/2000/svg">
<g clip-path="url(#clip0)">
<circle cx="256" cy="256" r="252" fill="url(#paint0_radial)" stroke="#FFFCF9" stroke-width="8"/>
<path d="M118.312 394.308C115.987 394.308 113.952 393.872 112.208 393C110.464 391.837 109.592 390.384 109.592 388.64C109.592 386.315 110.319 384.716 111.772 383.844C113.225 382.681 115.405 381.664 118.312 380.792C126.16 378.467 131.247 376.287 133.572 374.252C135.897 371.927 137.06 368.003 137.06 362.48V239.092C128.049 239.092 120.492 238.801 114.388 238.22C112.935 237.929 111.481 236.476 110.028 233.86C108.865 231.244 108.284 228.919 108.284 226.884C108.284 225.14 109.447 223.977 111.772 223.396L137.06 212.06C137.932 182.121 143.891 157.705 154.936 138.812C166.272 119.628 179.788 105.967 195.484 97.828C211.471 89.3987 227.457 85.184 243.444 85.184C261.756 85.184 275.272 87.8 283.992 93.032C292.712 98.264 297.072 106.112 297.072 116.576C297.072 122.971 295.619 128.057 292.712 131.836C289.805 135.324 285.881 137.068 280.94 137.068C278.615 137.068 276.289 136.196 273.964 134.452C271.639 132.417 268.732 129.365 265.244 125.296C259.14 118.901 253.036 113.815 246.932 110.036C240.828 106.257 233.561 104.368 225.132 104.368C212.343 104.368 202.46 109.891 195.484 120.936C188.799 131.981 185.456 148.549 185.456 170.64V207.7C185.456 211.188 187.491 212.932 191.56 212.932H242.572C244.607 212.932 246.205 213.659 247.368 215.112C248.531 216.275 249.112 217.728 249.112 219.472C249.112 224.995 247.949 229.791 245.624 233.86C245.333 235.023 244.752 235.895 243.88 236.476C243.299 237.057 242.717 237.348 242.136 237.348H198.536C193.595 237.348 190.107 238.075 188.072 239.528C186.328 240.691 185.456 242.871 185.456 246.068V357.684C185.456 364.951 187.2 370.037 190.688 372.944C194.467 375.851 202.169 378.321 213.796 380.356C216.993 380.937 219.319 381.809 220.772 382.972C222.225 384.135 222.952 385.879 222.952 388.204C222.952 389.948 222.225 391.401 220.772 392.564C219.319 393.727 217.429 394.308 215.104 394.308C205.803 394.308 196.356 393.872 186.764 393C175.137 392.419 166.853 392.128 161.912 392.128C157.552 392.128 150.721 392.419 141.42 393C134.444 393.872 126.741 394.308 118.312 394.308ZM336.448 399.104C320.752 399.104 306.655 395.035 294.156 386.896C281.948 378.757 272.356 367.567 265.38 353.324C258.404 338.791 254.916 322.368 254.916 304.056C254.916 286.616 258.986 270.484 267.124 255.66C275.554 240.836 286.744 229.064 300.696 220.344C314.648 211.624 329.908 207.264 346.476 207.264C364.788 207.264 380.048 212.787 392.256 223.832C404.464 234.877 410.568 248.829 410.568 265.688C410.568 270.92 409.406 274.844 407.08 277.46C405.046 280.076 401.703 281.384 397.052 281.384H308.544C304.475 281.384 301.568 282.547 299.824 284.872C298.08 287.197 297.208 291.121 297.208 296.644C297.208 308.852 299.824 319.897 305.056 329.78C310.288 339.663 317.41 347.511 326.42 353.324C335.722 359.137 346.04 362.044 357.376 362.044C372.491 362.044 387.024 355.795 400.976 343.296C403.302 340.971 405.191 339.808 406.644 339.808C407.807 339.808 408.824 340.389 409.696 341.552C410.568 342.424 411.004 343.587 411.004 345.04C411.004 348.819 409.26 353.76 405.772 359.864C400.54 370.909 391.675 380.211 379.176 387.768C366.678 395.325 352.435 399.104 336.448 399.104ZM339.5 264.38C352.29 264.38 361.591 263.653 367.404 262.2C370.02 261.619 371.328 257.84 371.328 250.864C371.328 243.016 368.276 236.476 362.172 231.244C356.359 225.721 349.092 222.96 340.372 222.96C334.268 222.96 328.31 224.849 322.496 228.628C316.683 232.116 311.887 236.767 308.108 242.58C304.62 248.103 302.876 253.625 302.876 259.148C302.876 262.636 304.911 264.38 308.98 264.38H339.5Z" fill="#1A1A1A"/>
<path d="M112.208 393L109.989 396.328L110.196 396.466L110.419 396.578L112.208 393ZM111.772 383.844L113.83 387.274L114.061 387.136L114.271 386.967L111.772 383.844ZM118.312 380.792L117.176 376.957L117.163 376.961L118.312 380.792ZM133.572 374.252L136.206 377.262L136.306 377.175L136.4 377.08L133.572 374.252ZM137.06 239.092H141.06V235.092H137.06V239.092ZM114.388 238.22L113.604 242.142L113.805 242.183L114.009 242.202L114.388 238.22ZM110.028 233.86L106.373 235.485L106.445 235.647L106.531 235.803L110.028 233.86ZM111.772 223.396L112.742 227.277L113.085 227.191L113.408 227.046L111.772 223.396ZM137.06 212.06L138.696 215.71L140.985 214.684L141.058 212.176L137.06 212.06ZM154.936 138.812L151.492 136.777L151.488 136.785L151.483 136.793L154.936 138.812ZM195.484 97.828L197.325 101.379L197.337 101.373L197.35 101.366L195.484 97.828ZM292.712 131.836L295.785 134.397L295.835 134.337L295.883 134.275L292.712 131.836ZM273.964 134.452L271.33 137.462L271.443 137.562L271.564 137.652L273.964 134.452ZM265.244 125.296L268.281 122.693L268.211 122.612L268.137 122.534L265.244 125.296ZM195.484 120.936L192.102 118.8L192.082 118.832L192.062 118.865L195.484 120.936ZM247.368 215.112L244.245 217.611L244.383 217.784L244.54 217.94L247.368 215.112ZM245.624 233.86L242.151 231.875L241.877 232.355L241.743 232.89L245.624 233.86ZM243.88 236.476L241.661 233.148L241.332 233.367L241.052 233.648L243.88 236.476ZM188.072 239.528L190.291 242.856L190.344 242.82L190.397 242.783L188.072 239.528ZM190.688 372.944L188.127 376.017L188.187 376.067L188.249 376.114L190.688 372.944ZM213.796 380.356L214.512 376.421L214.499 376.418L214.486 376.416L213.796 380.356ZM220.772 382.972L223.271 379.849L223.271 379.849L220.772 382.972ZM220.772 392.564L223.271 395.687L223.271 395.687L220.772 392.564ZM186.764 393L187.126 389.016L187.045 389.009L186.964 389.005L186.764 393ZM141.42 393L141.17 389.008L141.047 389.016L140.924 389.031L141.42 393ZM118.312 390.308C116.489 390.308 115.088 389.968 113.997 389.422L110.419 396.578C112.816 397.776 115.484 398.308 118.312 398.308V390.308ZM114.427 389.672C113.934 389.343 113.744 389.093 113.676 388.98C113.624 388.894 113.592 388.809 113.592 388.64H105.592C105.592 392.004 107.39 394.596 109.989 396.328L114.427 389.672ZM113.592 388.64C113.592 387.872 113.715 387.492 113.778 387.352C113.807 387.289 113.824 387.274 113.818 387.281C113.811 387.289 113.809 387.287 113.83 387.274L109.714 380.414C106.627 382.266 105.592 385.494 105.592 388.64H113.592ZM114.271 386.967C115.15 386.264 116.775 385.429 119.461 384.623L117.163 376.961C114.036 377.899 111.3 379.099 109.273 380.721L114.271 386.967ZM119.448 384.627C123.458 383.439 126.852 382.262 129.589 381.09C132.264 379.943 134.571 378.693 136.206 377.262L130.938 371.242C130.247 371.846 128.849 372.703 126.437 373.736C124.087 374.744 121.014 375.82 117.176 376.957L119.448 384.627ZM136.4 377.08C139.848 373.632 141.06 368.384 141.06 362.48H133.06C133.06 367.621 131.946 370.221 130.744 371.424L136.4 377.08ZM141.06 362.48V239.092H133.06V362.48H141.06ZM137.06 235.092C128.123 235.092 120.702 234.803 114.767 234.238L114.009 242.202C120.282 242.799 127.976 243.092 137.06 243.092V235.092ZM115.172 234.298C115.466 234.356 115.413 234.461 115.036 234.084C114.662 233.71 114.145 233.034 113.525 231.917L106.531 235.803C107.364 237.302 108.3 238.661 109.38 239.74C110.456 240.817 111.856 241.793 113.604 242.142L115.172 234.298ZM113.683 232.235C112.662 229.937 112.284 228.18 112.284 226.884H104.284C104.284 229.657 105.069 232.551 106.373 235.485L113.683 232.235ZM112.284 226.884C112.284 226.899 112.28 227.01 112.216 227.171C112.15 227.335 112.057 227.46 111.984 227.532C111.921 227.596 111.914 227.579 112.035 227.519C112.158 227.457 112.382 227.367 112.742 227.277L110.802 219.515C109.238 219.906 107.604 220.599 106.328 221.876C104.947 223.256 104.284 225.023 104.284 226.884H112.284ZM113.408 227.046L138.696 215.71L135.424 208.41L110.136 219.746L113.408 227.046ZM141.058 212.176C141.918 182.672 147.784 158.972 158.389 140.831L151.483 136.793C139.998 156.439 133.946 181.571 133.062 211.944L141.058 212.176ZM158.38 140.847C169.433 122.142 182.448 109.093 197.325 101.379L193.643 94.277C177.128 102.84 163.111 117.114 151.492 136.777L158.38 140.847ZM197.35 101.366C212.837 93.2001 228.188 89.184 243.444 89.184V81.184C226.726 81.184 210.104 85.5972 193.618 94.2897L197.35 101.366ZM243.444 89.184C261.53 89.184 274.157 91.7956 281.934 96.462L286.05 89.602C276.387 83.8043 261.982 81.184 243.444 81.184V89.184ZM281.934 96.462C289.407 100.946 293.072 107.467 293.072 116.576H301.072C301.072 104.757 296.017 95.5822 286.05 89.602L281.934 96.462ZM293.072 116.576C293.072 122.388 291.753 126.523 289.542 129.397L295.883 134.275C299.485 129.592 301.072 123.553 301.072 116.576H293.072ZM289.639 129.275C287.566 131.764 284.813 133.068 280.94 133.068V141.068C286.949 141.068 292.045 138.884 295.785 134.397L289.639 129.275ZM280.94 133.068C279.677 133.068 278.173 132.608 276.364 131.252L271.564 137.652C274.406 139.783 277.553 141.068 280.94 141.068V133.068ZM276.598 131.442C274.484 129.592 271.721 126.706 268.281 122.693L262.207 127.899C265.743 132.025 268.794 135.243 271.33 137.462L276.598 131.442ZM268.137 122.534C261.851 115.948 255.488 110.628 249.037 106.635L244.827 113.437C250.584 117.001 256.429 121.855 262.351 128.058L268.137 122.534ZM249.037 106.635C242.198 102.401 234.174 100.368 225.132 100.368V108.368C232.949 108.368 239.458 110.114 244.827 113.437L249.037 106.635ZM225.132 100.368C210.935 100.368 199.792 106.625 192.102 118.8L198.866 123.072C205.128 113.157 213.751 108.368 225.132 108.368V100.368ZM192.062 118.865C184.817 130.835 181.456 148.276 181.456 170.64H189.456C189.456 148.822 192.781 133.127 198.906 123.007L192.062 118.865ZM181.456 170.64V207.7H189.456V170.64H181.456ZM181.456 207.7C181.456 210.235 182.224 212.814 184.379 214.661C186.415 216.407 189.047 216.932 191.56 216.932V208.932C190.815 208.932 190.31 208.851 189.988 208.759C189.832 208.714 189.73 208.67 189.67 208.639C189.611 208.609 189.587 208.589 189.585 208.587C189.584 208.586 189.588 208.59 189.591 208.594C189.594 208.598 189.583 208.584 189.566 208.539C189.529 208.445 189.456 208.192 189.456 207.7H181.456ZM191.56 216.932H242.572V208.932H191.56V216.932ZM242.572 216.932C243.521 216.932 243.918 217.203 244.245 217.611L250.491 212.613C248.492 210.114 245.692 208.932 242.572 208.932V216.932ZM244.54 217.94C244.903 218.304 245.112 218.717 245.112 219.472H253.112C253.112 216.739 252.158 214.245 250.196 212.284L244.54 217.94ZM245.112 219.472C245.112 224.423 244.074 228.51 242.151 231.875L249.097 235.845C251.825 231.071 253.112 225.566 253.112 219.472H245.112ZM241.743 232.89C241.694 233.089 241.644 233.163 241.642 233.167C241.64 233.17 241.643 233.165 241.651 233.157C241.659 233.149 241.664 233.146 241.661 233.148L246.099 239.804C247.918 238.592 249.01 236.81 249.505 234.83L241.743 232.89ZM241.052 233.648C240.906 233.793 241.282 233.348 242.136 233.348V241.348C244.152 241.348 245.691 240.322 246.708 239.304L241.052 233.648ZM242.136 233.348H198.536V241.348H242.136V233.348ZM198.536 233.348C193.442 233.348 188.859 234.051 185.747 236.273L190.397 242.783C191.355 242.099 193.747 241.348 198.536 241.348V233.348ZM185.853 236.2C182.497 238.437 181.456 242.272 181.456 246.068H189.456C189.456 243.469 190.159 242.944 190.291 242.856L185.853 236.2ZM181.456 246.068V357.684H189.456V246.068H181.456ZM181.456 357.684C181.456 365.432 183.297 371.992 188.127 376.017L193.249 369.871C191.103 368.083 189.456 364.47 189.456 357.684H181.456ZM188.249 376.114C190.673 377.979 194.048 379.494 198.077 380.786C202.162 382.096 207.187 383.26 213.106 384.296L214.486 376.416C208.779 375.417 204.139 374.329 200.521 373.168C196.847 371.99 194.482 370.816 193.127 369.774L188.249 376.114ZM213.08 384.291C216.046 384.831 217.592 385.551 218.273 386.095L223.271 379.849C221.045 378.068 217.941 377.044 214.512 376.421L213.08 384.291ZM218.273 386.095C218.545 386.313 218.952 386.761 218.952 388.204H226.952C226.952 384.996 225.905 381.956 223.271 379.849L218.273 386.095ZM218.952 388.204C218.952 388.642 218.851 388.978 218.273 389.441L223.271 395.687C225.6 393.824 226.952 391.254 226.952 388.204H218.952ZM218.273 389.441C217.691 389.906 216.753 390.308 215.104 390.308V398.308C218.106 398.308 220.946 397.547 223.271 395.687L218.273 389.441ZM215.104 390.308C205.928 390.308 196.602 389.878 187.126 389.016L186.402 396.984C196.11 397.866 205.678 398.308 215.104 398.308V390.308ZM186.964 389.005C175.335 388.424 166.963 388.128 161.912 388.128V396.128C166.744 396.128 174.939 396.414 186.564 396.995L186.964 389.005ZM161.912 388.128C157.419 388.128 150.484 388.426 141.17 389.008L141.67 396.992C150.959 396.412 157.685 396.128 161.912 396.128V388.128ZM140.924 389.031C134.141 389.879 126.607 390.308 118.312 390.308V398.308C126.876 398.308 134.747 397.865 141.916 396.969L140.924 389.031ZM294.156 386.896L291.937 390.224L291.955 390.236L291.974 390.248L294.156 386.896ZM265.38 353.324L261.774 355.055L261.781 355.069L261.788 355.083L265.38 353.324ZM267.124 255.66L263.647 253.683L263.632 253.709L263.618 253.735L267.124 255.66ZM300.696 220.344L302.816 223.736L302.816 223.736L300.696 220.344ZM392.256 223.832L389.573 226.798L389.573 226.798L392.256 223.832ZM407.08 277.46L404.091 274.803L404.003 274.901L403.923 275.004L407.08 277.46ZM299.824 284.872L296.624 282.472L299.824 284.872ZM305.056 329.78L301.521 331.652L301.521 331.652L305.056 329.78ZM326.42 353.324L324.252 356.685L324.276 356.701L324.3 356.716L326.42 353.324ZM400.976 343.296L403.645 346.275L403.727 346.202L403.805 346.124L400.976 343.296ZM409.696 341.552L406.496 343.952L406.667 344.179L406.868 344.38L409.696 341.552ZM405.772 359.864L402.299 357.879L402.223 358.013L402.157 358.152L405.772 359.864ZM379.176 387.768L377.107 384.345L377.107 384.345L379.176 387.768ZM367.404 262.2L366.537 258.295L366.485 258.307L366.434 258.319L367.404 262.2ZM362.172 231.244L359.417 234.144L359.491 234.214L359.569 234.281L362.172 231.244ZM322.496 228.628L324.554 232.058L324.616 232.021L324.676 231.982L322.496 228.628ZM308.108 242.58L304.754 240.4L304.74 240.422L304.726 240.444L308.108 242.58ZM336.448 395.104C321.485 395.104 308.153 391.237 296.339 383.544L291.974 390.248C305.157 398.832 320.02 403.104 336.448 403.104V395.104ZM296.375 383.568C284.803 375.853 275.663 365.225 268.973 351.565L261.788 355.083C269.049 369.908 279.094 381.662 291.937 390.224L296.375 383.568ZM268.986 351.593C262.303 337.669 258.916 321.851 258.916 304.056H250.916C250.916 322.885 254.506 339.912 261.774 355.055L268.986 351.593ZM258.916 304.056C258.916 287.267 262.826 271.8 270.631 257.585L263.618 253.735C255.145 269.168 250.916 285.965 250.916 304.056H258.916ZM270.601 257.637C278.715 243.368 289.448 232.091 302.816 223.736L298.576 216.952C284.041 226.037 272.392 238.304 263.647 253.683L270.601 257.637ZM302.816 223.736C316.128 215.416 330.652 211.264 346.476 211.264V203.264C329.164 203.264 313.169 207.832 298.576 216.952L302.816 223.736ZM346.476 211.264C363.917 211.264 378.185 216.495 389.573 226.798L394.94 220.866C381.912 209.079 365.66 203.264 346.476 203.264V211.264ZM389.573 226.798C400.92 237.065 406.568 249.929 406.568 265.688H414.568C414.568 247.73 408.009 232.69 394.94 220.866L389.573 226.798ZM406.568 265.688C406.568 270.412 405.508 273.208 404.091 274.803L410.07 280.117C413.303 276.48 414.568 271.428 414.568 265.688H406.568ZM403.923 275.004C402.919 276.295 400.995 277.384 397.052 277.384V285.384C402.411 285.384 407.172 283.857 410.238 279.916L403.923 275.004ZM397.052 277.384H308.544V285.384H397.052V277.384ZM308.544 277.384C303.752 277.384 299.396 278.776 296.624 282.472L303.024 287.272C303.74 286.317 305.198 285.384 308.544 285.384V277.384ZM296.624 282.472C294.068 285.881 293.208 290.924 293.208 296.644H301.208C301.208 291.319 302.093 288.514 303.024 287.272L296.624 282.472ZM293.208 296.644C293.208 309.443 295.956 321.141 301.521 331.652L308.591 327.908C303.692 318.654 301.208 308.261 301.208 296.644H293.208ZM301.521 331.652C307.059 342.113 314.64 350.484 324.252 356.685L328.589 349.963C320.179 344.537 313.517 337.213 308.591 327.908L301.521 331.652ZM324.3 356.716C334.259 362.94 345.317 366.044 357.376 366.044V358.044C346.764 358.044 337.184 355.334 328.54 349.932L324.3 356.716ZM357.376 366.044C373.697 366.044 389.143 359.267 403.645 346.275L398.307 340.317C384.906 352.322 371.285 358.044 357.376 358.044V366.044ZM403.805 346.124C404.842 345.087 405.649 344.446 406.234 344.087C406.855 343.704 406.95 343.808 406.644 343.808V335.808C404.885 335.808 403.309 336.493 402.041 337.273C400.736 338.076 399.436 339.179 398.148 340.468L403.805 346.124ZM406.644 343.808C406.598 343.808 406.532 343.802 406.458 343.782C406.385 343.762 406.328 343.736 406.295 343.717C406.23 343.68 406.311 343.706 406.496 343.952L412.896 339.152C411.478 337.261 409.378 335.808 406.644 335.808V343.808ZM406.868 344.38C406.897 344.41 406.913 344.432 406.932 344.482C406.955 344.545 407.004 344.713 407.004 345.04H415.004C415.004 342.73 414.28 340.479 412.525 338.724L406.868 344.38ZM407.004 345.04C407.004 347.749 405.693 351.941 402.299 357.879L409.245 361.849C412.828 355.579 415.004 349.888 415.004 345.04H407.004ZM402.157 358.152C397.322 368.359 389.067 377.113 377.107 384.345L381.246 391.191C394.283 383.308 403.758 373.46 409.387 361.576L402.157 358.152ZM377.107 384.345C365.291 391.49 351.777 395.104 336.448 395.104V403.104C353.093 403.104 368.065 399.161 381.246 391.191L377.107 384.345ZM339.5 268.38C352.334 268.38 362.054 267.661 368.374 266.081L366.434 258.319C361.128 259.646 352.245 260.38 339.5 260.38V268.38ZM368.272 266.105C371.525 265.382 373.26 262.745 374.127 260.238C374.997 257.727 375.328 254.517 375.328 250.864H367.328C367.328 254.187 367.006 256.354 366.567 257.622C366.127 258.894 365.899 258.437 366.537 258.295L368.272 266.105ZM375.328 250.864C375.328 241.816 371.741 234.178 364.775 228.207L359.569 234.281C364.811 238.774 367.328 244.216 367.328 250.864H375.328ZM364.927 228.344C358.302 222.05 350.02 218.96 340.372 218.96V226.96C348.165 226.96 354.416 229.392 359.417 234.144L364.927 228.344ZM340.372 218.96C333.393 218.96 326.688 221.133 320.316 225.274L324.676 231.982C329.931 228.566 335.144 226.96 340.372 226.96V218.96ZM320.438 225.198C314.092 229.006 308.857 234.089 304.754 240.4L311.462 244.76C314.917 239.444 319.274 235.226 324.554 232.058L320.438 225.198ZM304.726 240.444C300.909 246.488 298.876 252.74 298.876 259.148H306.876C306.876 254.51 308.331 249.718 311.49 244.716L304.726 240.444ZM298.876 259.148C298.876 261.683 299.645 264.262 301.799 266.109C303.836 267.855 306.467 268.38 308.98 268.38V260.38C308.236 260.38 307.73 260.299 307.409 260.207C307.252 260.162 307.151 260.118 307.09 260.087C307.031 260.057 307.008 260.037 307.005 260.035C307.004 260.034 307.008 260.038 307.012 260.042C307.014 260.046 307.003 260.032 306.986 259.987C306.949 259.893 306.876 259.64 306.876 259.148H298.876ZM308.98 268.38H339.5V260.38H308.98V268.38Z" fill="#FFFCF9"/>
</g>
<defs>
<radialGradient id="paint0_radial" cx="0" cy="0" r="1" gradientUnits="userSpaceOnUse" gradientTransform="translate(442.428 100.593) rotate(162.542) scale(463.793)">
<stop stop-color="#D6F0F5"/>
<stop offset="1" stop-color="#F2DDD1"/>
</radialGradient>
<clipPath id="clip0">
<rect width="512" height="512" fill="white"/>
</clipPath>
</defs>
</svg>
