<svg width="512" height="512" viewBox="0 0 512 512" fill="none" xmlns="http://www.w3.org/2000/svg">
    <circle cx="256" cy="256" r="242" stroke="#1A1A1A" stroke-width="28"/>
    <path d="M118.312 394.308C115.987 394.308 113.952 393.872 112.208 393C110.464 391.837 109.592 390.384 109.592 388.64C109.592 386.315 110.319 384.716 111.772 383.844C113.225 382.681 115.405 381.664 118.312 380.792C126.16 378.467 131.247 376.287 133.572 374.252C135.897 371.927 137.06 368.003 137.06 362.48V239.092C128.049 239.092 120.492 238.801 114.388 238.22C112.935 237.929 111.481 236.476 110.028 233.86C108.865 231.244 108.284 228.919 108.284 226.884C108.284 225.14 109.447 223.977 111.772 223.396L137.06 212.06C137.932 182.121 143.891 157.705 154.936 138.812C166.272 119.628 179.788 105.967 195.484 97.828C211.471 89.3987 227.457 85.184 243.444 85.184C261.756 85.184 275.272 87.8 283.992 93.032C292.712 98.264 297.072 106.112 297.072 116.576C297.072 122.971 295.619 128.057 292.712 131.836C289.805 135.324 285.881 137.068 280.94 137.068C278.615 137.068 276.289 136.196 273.964 134.452C271.639 132.417 268.732 129.365 265.244 125.296C259.14 118.901 253.036 113.815 246.932 110.036C240.828 106.257 233.561 104.368 225.132 104.368C212.343 104.368 202.46 109.891 195.484 120.936C188.799 131.981 185.456 148.549 185.456 170.64V207.7C185.456 211.188 187.491 212.932 191.56 212.932H242.572C244.607 212.932 246.205 213.659 247.368 215.112C248.531 216.275 249.112 217.728 249.112 219.472C249.112 224.995 247.949 229.791 245.624 233.86C245.333 235.023 244.752 235.895 243.88 236.476C243.299 237.057 242.717 237.348 242.136 237.348H198.536C193.595 237.348 190.107 238.075 188.072 239.528C186.328 240.691 185.456 242.871 185.456 246.068V357.684C185.456 364.951 187.2 370.037 190.688 372.944C194.467 375.851 202.169 378.321 213.796 380.356C216.993 380.937 219.319 381.809 220.772 382.972C222.225 384.135 222.952 385.879 222.952 388.204C222.952 389.948 222.225 391.401 220.772 392.564C219.319 393.727 217.429 394.308 215.104 394.308C205.803 394.308 196.356 393.872 186.764 393C175.137 392.419 166.853 392.128 161.912 392.128C157.552 392.128 150.721 392.419 141.42 393C134.444 393.872 126.741 394.308 118.312 394.308ZM336.448 399.104C320.752 399.104 306.655 395.035 294.156 386.896C281.948 378.757 272.356 367.567 265.38 353.324C258.404 338.791 254.916 322.368 254.916 304.056C254.916 286.616 258.986 270.484 267.124 255.66C275.554 240.836 286.744 229.064 300.696 220.344C314.648 211.624 329.908 207.264 346.476 207.264C364.788 207.264 380.048 212.787 392.256 223.832C404.464 234.877 410.568 248.829 410.568 265.688C410.568 270.92 409.406 274.844 407.08 277.46C405.046 280.076 401.703 281.384 397.052 281.384H308.544C304.475 281.384 301.568 282.547 299.824 284.872C298.08 287.197 297.208 291.121 297.208 296.644C297.208 308.852 299.824 319.897 305.056 329.78C310.288 339.663 317.41 347.511 326.42 353.324C335.722 359.137 346.04 362.044 357.376 362.044C372.491 362.044 387.024 355.795 400.976 343.296C403.302 340.971 405.191 339.808 406.644 339.808C407.807 339.808 408.824 340.389 409.696 341.552C410.568 342.424 411.004 343.587 411.004 345.04C411.004 348.819 409.26 353.76 405.772 359.864C400.54 370.909 391.675 380.211 379.176 387.768C366.678 395.325 352.435 399.104 336.448 399.104ZM339.5 264.38C352.29 264.38 361.591 263.653 367.404 262.2C370.02 261.619 371.328 257.84 371.328 250.864C371.328 243.016 368.276 236.476 362.172 231.244C356.359 225.721 349.092 222.96 340.372 222.96C334.268 222.96 328.31 224.849 322.496 228.628C316.683 232.116 311.887 236.767 308.108 242.58C304.62 248.103 302.876 253.625 302.876 259.148C302.876 262.636 304.911 264.38 308.98 264.38H339.5Z" 
        fill="#1A1A1A"/>
</svg>
